# xmcd CD database file
#
# Track frame offsets:
#	150
#	13803
#	26924
#	41859
#	54230
#	66378
#	78100
#	88919
#	99698
#	111429
#	123355
#	133997
#	145867
#	155754
#	166385
#	176882
#	193497
#	206063
#	217764
#	231398
#	242878
#	262527
#	278890
#	290361
#	302565
#
# Disc length: 4188 seconds
#
# Revision: 2
# Processed by: cddbd v1.5.1PL2 Copyright (c) Steve Scherf et al.
# Submitted via: Feurio! 1.68 - http://www.feurio.com
#
DISCID=80105a19
DTITLE=Western - The Best of Country und West
DYEAR=1900
DGENRE=
TTITLE0=Charley Pride - Detroit City 2
TTITLE1=Hank Williams - Jambalaya
TTITLE2=Jim Reeves - Blue Side of Lonesome
TTITLE3=Johnny Horton - North to Alaska
TTITLE4=Frankie Lane - High Noon
TTITLE5=Skeeter Davis - The End of the World
TTITLE6=Porter Wagoner - Green Green Grass of Home
TTITLE7=Waylon Jennings - Anita You´re Dreaming
TTITLE8=Dickey Lee - Never Ending Song of Love
TTITLE9=Tammy Wynette - Stand by your Man
TTITLE10=Jim Reeves - He´ll have to go
TTITLE11=Guy Mitchell - Heartaches by the Number
TTITLE12=Johnny Cash - Ballad of a teenage queen
TTITLE13=Leroy Van Dyke - Walk on by
TTITLE14=Johnny Cash - Bonanza
TTITLE15=Dolly Parton - The Great Pretender
TTITLE16=Jim Reeves - Distant Drums
TTITLE17=Bobby Bare - The Streets of Baltimore
TTITLE18=Charley Pride - Detroit City
TTITLE19=Johnny Cash - Ring of Fire
TTITLE20=Marty Robbins - El Paso
TTITLE21=Dolly Parton - Save the last Dance for me
TTITLE22=Don Gibson - Oh Lonesome Me
TTITLE23=Don Williams - Some Broken Hearts Never Mend
TTITLE24=Dave Dudley - MAD
EXTD=
EXTT0=
EXTT1=
EXTT2=
EXTT3=
EXTT4=
EXTT5=
EXTT6=
EXTT7=
EXTT8=
EXTT9=
EXTT10=
EXTT11=
EXTT12=
EXTT13=
EXTT14=
EXTT15=
EXTT16=
EXTT17=
EXTT18=
EXTT19=
EXTT20=
EXTT21=
EXTT22=
EXTT23=
EXTT24=
PLAYORDER=
